<?xml version="1.0" encoding="utf-8"?>
<!-- Generator: Adobe Illustrator 28.1.0, SVG Export Plug-In . SVG Version: 6.00 Build 0)  -->
<svg version="1.1" id="Capa_1" xmlns="http://www.w3.org/2000/svg" xmlns:xlink="http://www.w3.org/1999/xlink" x="0px" y="0px"
	 viewBox="0 0 400 115.01" style="enable-background:new 0 0 400 115.01;" xml:space="preserve">
<style type="text/css">
	.st0{fill:#FFFFFF;}
</style>
<path class="st0" d="M219.12,31.59c-2.74,0-5.31,0.7-7.73,2.09c-1.47,0.9-2.9,2.17-4.29,3.8h24.02c-1.39-1.64-2.82-2.9-4.29-3.8
	c-2.42-1.39-4.99-2.09-7.73-2.09 M349.95,39.44c-1.52,2.42-2.26,5.05-2.26,7.9c0,4.34,1.64,8.07,4.91,11.22
	c3.22,3.1,7.05,4.66,11.46,4.66s8.3-1.55,11.52-4.66c3.27-3.14,4.91-6.88,4.91-11.22c0-2.86-0.76-5.5-2.26-7.9
	c-1.52-2.41-3.53-4.34-6.07-5.76c-2.49-1.39-5.19-2.09-8.09-2.09s-5.5,0.7-8.02,2.09c-2.54,1.43-4.55,3.35-6.07,5.76 M380.52,77.27
	c-1.3,0.57-2.26,0.96-2.88,1.16c-4.33,1.67-8.86,2.51-13.6,2.51c-6.25,0-12.16-1.46-17.7-4.35c-5.56-2.94-9.97-6.94-13.24-12.02
	c-3.31-5.15-4.97-10.89-4.97-17.23c0-4.78,0.96-9.23,2.88-13.37c1.92-4.09,4.55-7.64,7.9-10.67c3.31-3.02,7.15-5.33,11.52-6.93
	c4.37-1.67,8.91-2.51,13.6-2.51s9.2,0.82,13.6,2.45s8.25,3.97,11.52,6.99c3.44,3.1,6.09,6.66,7.96,10.67
	c1.92,4.12,2.88,8.58,2.88,13.37l-0.06,31.95l-19.42-0.18v-1.84L380.52,77.27z M280.65,58.75c3.22,3.15,6.94,4.72,11.15,4.72
	s7.99-1.58,11.21-4.72c3.19-3.1,4.78-6.85,4.78-11.22c0-2.77-0.73-5.39-2.2-7.84c-1.47-2.45-3.44-4.37-5.89-5.76
	c-2.49-1.39-5.13-2.09-7.9-2.09s-5.37,0.7-7.79,2.09c-2.45,1.39-4.43,3.31-5.95,5.76c-1.47,2.45-2.2,5.07-2.2,7.84
	c0,4.37,1.6,8.12,4.78,11.22 M325.07,47.9l-0.06,33.23v4.54c0,8.05-2.86,14.94-8.58,20.67c-2.65,2.65-6.21,4.76-10.67,6.32
	c-4.17,1.47-8.3,2.2-12.38,2.2h-3.42c-9.31-0.2-16.73-3.05-22.24-8.52c-3.72-3.8-5.97-7.13-6.74-9.99l18.69-10.85
	c0.2,3.22,1.49,5.97,3.86,8.21c2.37,2.25,5.19,3.37,8.46,3.37c2.57,0,4.92-0.73,7.05-2.2c2.09-1.43,3.58-3.27,4.47-5.52l0.06-0.25
	l0.12-0.31c0.08-0.28,0.17-0.57,0.25-0.87c0.17-0.49,0.26-0.98,0.31-1.47v-0.19l0.06-0.18l0.06-0.25v-0.37h0.06v-6.43l-0.49,0.25
	l-0.49,0.19c-4.09,1.67-8.38,2.51-12.87,2.51c-5.96,0-11.54-1.49-16.73-4.48c-5.19-2.9-9.36-6.97-12.5-12.21
	c-3.15-5.23-4.72-11.06-4.72-17.48c0-4.86,0.92-9.36,2.76-13.49c1.75-4.09,4.24-7.73,7.48-10.91c3.14-3.02,6.78-5.37,10.91-7.05
	c4.17-1.68,8.44-2.51,12.81-2.51c7.6,0,13.24,0.98,16.91,2.94c11.72,5.02,17.59,15.39,17.59,31.08 M250.81,34.05
	c1.84,4.12,2.76,8.54,2.76,13.25v0.56c0,0.2-0.02,0.43-0.06,0.68l-0.12,1.04h-7.6v0.12h-42.15c0.49,3.44,1.98,6.4,4.47,8.89
	c3.14,3.1,6.83,4.66,11.03,4.66c4.21,0,7.93-1.55,11.03-4.66l0.12-0.12l0.18-0.25l0.18-0.18l0.12-0.19l10.55,15.09
	c-3.02,2.45-6.09,4.31-9.2,5.58c-4.17,1.64-8.5,2.45-12.99,2.45c-6.09,0-11.74-1.45-16.97-4.35c-5.36-2.94-9.57-6.97-12.68-12.08
	c-3.19-5.11-4.78-10.85-4.78-17.23c0-4.79,0.92-9.2,2.76-13.25c1.84-4.09,4.37-7.64,7.6-10.67c3.27-3.1,6.94-5.46,11.03-7.05
	c4.21-1.64,8.56-2.45,13.05-2.45s8.83,0.82,12.99,2.45c4.12,1.59,7.82,3.92,11.09,6.99c3.22,2.99,5.76,6.56,7.6,10.72
	 M230.71,108.06c1.17,1.17,2.6,1.75,4.29,1.75s2.64-0.52,2.64-1.55c0-0.55-0.49-0.95-1.46-1.2c-0.69-0.17-1.79-0.44-3.29-0.83
	c-1.22-0.32-2.25-0.91-3.08-1.78c-0.83-0.85-1.24-2.16-1.24-3.92c0-1.36,0.34-2.5,1.02-3.44c0.69-0.94,1.59-1.62,2.68-2.07
	c1.13-0.45,2.35-0.69,3.67-0.69c0.75,0,1.52,0.11,2.29,0.32c0.84,0.26,1.59,0.58,2.25,0.96c0.72,0.4,1.36,0.87,1.92,1.37l-3.26,3.24
	c-0.95-0.71-1.99-1.08-3.1-1.08c-1.34,0-2.01,0.38-2.01,1.13c0,0.68,0.5,1.15,1.49,1.42c1.09,0.3,2.2,0.57,3.31,0.83
	c1.22,0.31,2.24,0.88,3.05,1.71c0.83,0.84,1.23,2.16,1.23,3.96c0,1.34-0.36,2.5-1.07,3.47c-0.71,0.98-1.67,1.72-2.87,2.2
	c-1.2,0.51-2.43,0.76-3.72,0.76c-1.07,0-2.04-0.08-2.9-0.26c-0.87-0.17-1.67-0.43-2.42-0.82c-0.77-0.38-1.59-0.89-2.44-1.54l3-3.96
	L230.71,108.06z M211.69,102.04c-0.46,0.72-0.69,1.53-0.69,2.38c0,1.3,0.5,2.44,1.48,3.39c0.97,0.94,2.13,1.41,3.46,1.41
	s2.5-0.46,3.47-1.41c0.98-0.95,1.48-2.07,1.48-3.39c0-0.87-0.23-1.66-0.69-2.38c-0.45-0.72-1.07-1.3-1.82-1.74
	c-0.75-0.41-1.56-0.63-2.44-0.63s-1.66,0.21-2.42,0.63c-0.77,0.43-1.37,1.01-1.82,1.74 M220.91,113.45
	c-0.39,0.18-0.69,0.28-0.87,0.36c-1.3,0.51-2.68,0.76-4.1,0.76c-1.88,0-3.66-0.44-5.34-1.32c-1.67-0.89-3.01-2.1-3.99-3.63
	c-1-1.55-1.49-3.28-1.49-5.2c0-1.45,0.28-2.78,0.87-4.03c0.58-1.23,1.37-2.31,2.38-3.22c1-0.91,2.16-1.61,3.47-2.09
	c1.32-0.51,2.69-0.76,4.1-0.76c1.41,0,2.77,0.25,4.1,0.73c1.33,0.5,2.49,1.2,3.47,2.11c1.03,0.94,1.84,2.01,2.41,3.22
	c0.58,1.24,0.87,2.58,0.87,4.03v9.63L220.9,114v-0.56L220.91,113.45z M198.04,94.88h4.85v19.13h-4.85
	C198.04,114.01,198.04,94.88,198.04,94.88z M204.88,88.84l-2.18,4.25h-4.38l2.33-4.15l4.24-0.11H204.88z M195.32,100.01
	c-0.31-0.21-0.71-0.33-1.2-0.36h-0.33c-1.5,0.06-2.25,1.11-2.25,3.14v11.21h-5.91V102.8c0-5.39,2.73-8.21,8.18-8.48h0.33
	c0.4,0.01,0.81,0.05,1.2,0.11V100L195.32,100.01z M175.05,95.05c0-2.29,0.39-4.05,1.19-5.29c0.78-1.22,1.9-2.12,3.33-2.7
	c1.41-0.57,3.1-0.85,5.1-0.85l0.04,5.47c-1.49-0.01-2.49,0.2-3,0.65c-0.51,0.47-0.76,1.37-0.76,2.71h2.31l1.32,5.07h-3.63V114h-5.9
	v-13.88h-1.94l-1.33-5.07h3.27L175.05,95.05z M153.52,108.06c1.17,1.17,2.6,1.75,4.29,1.75c1.69,0,2.64-0.52,2.64-1.55
	c0-0.55-0.49-0.95-1.46-1.2c-0.69-0.17-1.79-0.44-3.29-0.83c-1.22-0.32-2.25-0.91-3.08-1.78c-0.83-0.85-1.24-2.16-1.24-3.92
	c0-1.36,0.34-2.5,1.02-3.44c0.69-0.94,1.59-1.62,2.68-2.07c1.13-0.45,2.35-0.69,3.67-0.69c0.76,0,1.52,0.11,2.3,0.32
	c0.84,0.26,1.59,0.58,2.25,0.96c0.72,0.4,1.36,0.87,1.92,1.37l-3.25,3.24c-0.95-0.71-1.98-1.08-3.1-1.08
	c-1.34,0-2.01,0.38-2.01,1.13c0,0.68,0.5,1.15,1.49,1.42c1.1,0.3,2.2,0.57,3.31,0.83c1.22,0.31,2.24,0.88,3.05,1.71
	c0.83,0.84,1.23,2.16,1.23,3.96c0,1.34-0.36,2.5-1.07,3.47c-0.71,0.98-1.67,1.72-2.87,2.2c-1.2,0.51-2.43,0.76-3.71,0.76
	c-1.07,0-2.04-0.08-2.9-0.26c-0.87-0.17-1.67-0.43-2.42-0.82c-0.77-0.38-1.59-0.89-2.44-1.54l3-3.96V108.06z M139.21,99.68
	c-0.83,0-1.6,0.21-2.33,0.63c-0.44,0.27-0.88,0.65-1.29,1.15h7.24c-0.41-0.5-0.85-0.88-1.29-1.15
	C140.81,99.9,140.03,99.68,139.21,99.68 M148.77,100.42c0.56,1.24,0.83,2.57,0.83,3.99v0.17c0,0.06,0,0.13-0.02,0.2l-0.04,0.32
	h-2.29v0.04h-12.72c0.15,1.03,0.6,1.93,1.35,2.68c0.95,0.94,2.06,1.41,3.33,1.41s2.39-0.46,3.33-1.41l0.04-0.04l0.06-0.07l0.06-0.06
	l0.04-0.06l3.18,4.55c-0.91,0.73-1.84,1.3-2.77,1.68c-1.26,0.49-2.56,0.73-3.92,0.73c-1.84,0-3.54-0.44-5.12-1.32
	c-1.61-0.89-2.89-2.1-3.83-3.64c-0.96-1.54-1.45-3.27-1.45-5.2c0-1.45,0.27-2.77,0.83-3.99c0.56-1.23,1.32-2.31,2.29-3.22
	c0.98-0.94,2.1-1.65,3.33-2.12c1.27-0.5,2.58-0.73,3.93-0.73c1.35,0,2.67,0.25,3.92,0.73c1.24,0.49,2.36,1.19,3.34,2.11
	c0.97,0.9,1.74,1.98,2.29,3.24 M119.4,99.68c-1.5,0.06-2.25,1.11-2.25,3.14v11.19h-5.91v-11.19c0-5.39,2.73-8.21,8.16-8.48h0.33
	c5.45,0.27,8.16,3.1,8.16,8.48v11.19h-5.91v-11.19c0-2.04-0.75-3.08-2.25-3.14H119.4z M110.3,100.01c-0.31-0.21-0.71-0.33-1.2-0.36
	h-0.33c-1.5,0.06-2.25,1.11-2.25,3.14v11.21h-5.91V102.8c0-5.39,2.73-8.21,8.18-8.48h0.33c0.4,0.01,0.81,0.05,1.2,0.11V100
	L110.3,100.01z M84.57,102.04c-0.45,0.72-0.69,1.53-0.69,2.38c0,1.3,0.5,2.44,1.48,3.39c0.97,0.94,2.12,1.41,3.46,1.41
	c1.34,0,2.5-0.46,3.47-1.41c0.98-0.95,1.48-2.07,1.48-3.39c0-0.87-0.23-1.66-0.69-2.38c-0.45-0.72-1.07-1.3-1.82-1.74
	c-0.75-0.41-1.56-0.63-2.44-0.63s-1.66,0.21-2.42,0.63c-0.76,0.43-1.37,1.01-1.82,1.74 M93.8,113.45c-0.39,0.18-0.69,0.28-0.87,0.36
	c-1.3,0.51-2.68,0.76-4.1,0.76c-1.88,0-3.66-0.44-5.34-1.32c-1.67-0.89-3.01-2.1-3.99-3.63c-1-1.55-1.49-3.28-1.49-5.2
	c0-1.45,0.28-2.78,0.87-4.03c0.58-1.23,1.37-2.31,2.38-3.22c1-0.91,2.16-1.61,3.47-2.09c1.32-0.51,2.69-0.76,4.1-0.76
	c1.41,0,2.77,0.25,4.1,0.73c1.33,0.5,2.49,1.2,3.47,2.11c1.03,0.94,1.84,2.01,2.41,3.22c0.58,1.24,0.87,2.58,0.87,4.03v9.63
	L93.79,114v-0.56L93.8,113.45z M75.88,100.79c-0.53-0.45-1.11-0.78-1.74-1c-0.65-0.23-1.34-0.33-2.07-0.33
	c-1.35,0-2.5,0.44-3.44,1.32c-0.95,0.88-1.42,1.97-1.42,3.26c0,1.01,0.2,1.92,0.6,2.71c0.39,0.81,0.98,1.43,1.75,1.91
	c0.75,0.49,1.62,0.72,2.61,0.72c1.46,0,2.7-0.46,3.73-1.39l3.24,4.1c-0.46,0.5-1.13,0.94-1.96,1.32c-0.85,0.38-1.73,0.66-2.62,0.85
	c-0.9,0.19-1.73,0.27-2.5,0.27c-2.14,0-4.03-0.45-5.68-1.35c-1.64-0.91-2.89-2.11-3.77-3.59c-0.88-1.5-1.32-3.12-1.32-4.82
	c0-1.56,0.26-2.99,0.79-4.25c0.55-1.29,1.29-2.41,2.24-3.33c0.94-0.9,2.07-1.61,3.41-2.13c1.33-0.51,2.76-0.76,4.3-0.76
	c1.26,0,2.49,0.2,3.67,0.59c1.21,0.4,2.28,0.98,3.2,1.72l-3.07,4.18H75.88z M130.87,0h-2.11c-13.71,0.78-24.65,4.05-32.82,9.82
	C87.68,4.05,76.7,0.78,62.99,0h-0.25c0,0-0.01,0-0.02,0h-2.1C46.91,0.78,35.98,4.05,27.8,9.82c-2.46-1.72-5.17-3.22-8.11-4.49
	c-2.67-1.15-5.79-0.07-7.22,2.46L0.75,28.58c-1.47,2.6-0.71,5.9,1.78,7.56c3.91,2.62,6.08,7.52,6.48,14.71h0.31
	c-0.02,0.92-0.05,1.86-0.05,2.81v61.35h37.39V53.66c0-12.86,4.74-19.43,14.24-19.75h1.85C72.25,34.22,77,40.8,77,53.66h0.14v19.49
	c0,4.18,3.39,7.57,7.57,7.57h22.35c4.18,0,7.57-3.39,7.57-7.57V50.86c0.63-10.99,5.33-16.64,14.14-16.95h2.11
	c9.5,0.31,14.26,6.9,14.26,19.75v27.07h37.39V53.67c0-33.89-17.21-51.79-51.63-53.66"/>
</svg>
